<svg xmlns="http://www.w3.org/2000/svg" version="1.1" xmlns:xlink="http://www.w3.org/1999/xlink" width="128" height="128"><svg width="128" height="128" viewBox="0 0 128 128" fill="none" xmlns="http://www.w3.org/2000/svg">
<rect x="1.5" y="1.5" width="125" height="125" rx="8.5" stroke="#BDBDBD" stroke-width="3" data-darkreader-inline-stroke="" style="--darkreader-inline-stroke: var(--darkreader-text-bdbdbd, #beb9b0);"></rect>
<rect x="5.5" y="5.5" width="39" height="39" fill="white" stroke="#BDBDBD" stroke-width="5" data-darkreader-inline-fill="" data-darkreader-inline-stroke="" style="--darkreader-inline-fill: var(--darkreader-background-ffffff, #181a1b); --darkreader-inline-stroke: var(--darkreader-text-bdbdbd, #beb9b0);"></rect>
<rect x="5.5" y="44.5" width="39" height="39" fill="white" stroke="#BDBDBD" stroke-width="5" data-darkreader-inline-fill="" data-darkreader-inline-stroke="" style="--darkreader-inline-fill: var(--darkreader-background-ffffff, #181a1b); --darkreader-inline-stroke: var(--darkreader-text-bdbdbd, #beb9b0);"></rect>
<rect x="5.5" y="83.5" width="39" height="39" fill="white" stroke="#BDBDBD" stroke-width="5" data-darkreader-inline-fill="" data-darkreader-inline-stroke="" style="--darkreader-inline-fill: var(--darkreader-background-ffffff, #181a1b); --darkreader-inline-stroke: var(--darkreader-text-bdbdbd, #beb9b0);"></rect>
<rect x="44.5" y="5.5" width="39" height="39" fill="white" stroke="#BDBDBD" stroke-width="5" data-darkreader-inline-fill="" data-darkreader-inline-stroke="" style="--darkreader-inline-fill: var(--darkreader-background-ffffff, #181a1b); --darkreader-inline-stroke: var(--darkreader-text-bdbdbd, #beb9b0);"></rect>
<rect x="44.5" y="44.5" width="39" height="39" fill="white" stroke="#BDBDBD" stroke-width="5" data-darkreader-inline-fill="" data-darkreader-inline-stroke="" style="--darkreader-inline-fill: var(--darkreader-background-ffffff, #181a1b); --darkreader-inline-stroke: var(--darkreader-text-bdbdbd, #beb9b0);"></rect>
<rect x="44.5" y="83.5" width="39" height="39" fill="white" stroke="#BDBDBD" stroke-width="5" data-darkreader-inline-fill="" data-darkreader-inline-stroke="" style="--darkreader-inline-fill: var(--darkreader-background-ffffff, #181a1b); --darkreader-inline-stroke: var(--darkreader-text-bdbdbd, #beb9b0);"></rect>
<rect x="83.5" y="5.5" width="39" height="39" fill="white" stroke="#BDBDBD" stroke-width="5" data-darkreader-inline-fill="" data-darkreader-inline-stroke="" style="--darkreader-inline-fill: var(--darkreader-background-ffffff, #181a1b); --darkreader-inline-stroke: var(--darkreader-text-bdbdbd, #beb9b0);"></rect>
<rect x="83.5" y="44.5" width="39" height="39" fill="white" stroke="#BDBDBD" stroke-width="5" data-darkreader-inline-fill="" data-darkreader-inline-stroke="" style="--darkreader-inline-fill: var(--darkreader-background-ffffff, #181a1b); --darkreader-inline-stroke: var(--darkreader-text-bdbdbd, #beb9b0);"></rect>
<rect x="83.5" y="83.5" width="39" height="39" fill="white" stroke="#BDBDBD" stroke-width="5" data-darkreader-inline-fill="" data-darkreader-inline-stroke="" style="--darkreader-inline-fill: var(--darkreader-background-ffffff, #181a1b); --darkreader-inline-stroke: var(--darkreader-text-bdbdbd, #beb9b0);"></rect>
<path d="M18.8068 72V70.4659L24.5682 64.1591C25.2443 63.4205 25.8011 62.7784 26.2386 62.233C26.6761 61.6818 27 61.1648 27.2102 60.6818C27.4261 60.1932 27.5341 59.6818 27.5341 59.1477C27.5341 58.5341 27.3864 58.0028 27.0909 57.554C26.8011 57.1051 26.4034 56.7585 25.8977 56.5142C25.392 56.2699 24.8239 56.1477 24.1932 56.1477C23.5227 56.1477 22.9375 56.2869 22.4375 56.5653C21.9432 56.8381 21.5597 57.2216 21.2869 57.7159C21.0199 58.2102 20.8864 58.7898 20.8864 59.4545H18.875C18.875 58.4318 19.1108 57.5341 19.5824 56.7614C20.054 55.9886 20.696 55.3864 21.5085 54.9545C22.3267 54.5227 23.2443 54.3068 24.2614 54.3068C25.2841 54.3068 26.1903 54.5227 26.9801 54.9545C27.7699 55.3864 28.3892 55.9687 28.8381 56.7017C29.2869 57.4347 29.5114 58.25 29.5114 59.1477C29.5114 59.7898 29.3949 60.4176 29.1619 61.0312C28.9347 61.6392 28.5369 62.3182 27.9688 63.0682C27.4062 63.8125 26.625 64.7216 25.625 65.7955L21.7045 69.9886V70.125H29.8182V72H18.8068Z" fill="black" data-darkreader-inline-fill="" style="--darkreader-inline-fill: var(--darkreader-text-000000, #e8e6e3);"></path>
<path d="M102.261 111.239C101.261 111.239 100.361 111.04 99.5597 110.642C98.7585 110.244 98.1165 109.699 97.6335 109.006C97.1506 108.312 96.8864 107.523 96.8409 106.636H98.8864C98.9659 107.426 99.3239 108.08 99.9602 108.597C100.602 109.108 101.369 109.364 102.261 109.364C102.977 109.364 103.614 109.196 104.17 108.861C104.733 108.526 105.173 108.065 105.491 107.48C105.815 106.889 105.977 106.222 105.977 105.477C105.977 104.716 105.81 104.037 105.474 103.44C105.145 102.838 104.69 102.364 104.111 102.017C103.531 101.67 102.869 101.494 102.125 101.489C101.591 101.483 101.043 101.565 100.48 101.736C99.9176 101.901 99.4545 102.114 99.0909 102.375L97.1136 102.136L98.1705 93.5455H107.239V95.4205H99.9432L99.3295 100.568H99.4318C99.7898 100.284 100.239 100.048 100.778 99.8608C101.318 99.6733 101.881 99.5795 102.466 99.5795C103.534 99.5795 104.486 99.8352 105.321 100.347C106.162 100.852 106.821 101.545 107.298 102.426C107.781 103.307 108.023 104.312 108.023 105.443C108.023 106.557 107.773 107.551 107.273 108.426C106.778 109.295 106.097 109.983 105.227 110.489C104.358 110.989 103.369 111.239 102.261 111.239Z" fill="black" data-darkreader-inline-fill="" style="--darkreader-inline-fill: var(--darkreader-text-000000, #e8e6e3);"></path>
<path d="M64.3977 72.2386C63.2273 72.2386 62.1932 72.0312 61.2955 71.6165C60.4034 71.196 59.7074 70.6193 59.2074 69.8864C58.7074 69.1477 58.4602 68.3068 58.4659 67.3636C58.4602 66.625 58.6051 65.9432 58.9006 65.3182C59.196 64.6875 59.5994 64.1619 60.1108 63.7415C60.6278 63.3153 61.2045 63.0455 61.8409 62.9318V62.8295C61.0057 62.6136 60.3409 62.1449 59.8466 61.4233C59.3523 60.696 59.108 59.8693 59.1136 58.9432C59.108 58.0568 59.3324 57.2642 59.7869 56.5653C60.2415 55.8665 60.8665 55.3153 61.6619 54.9119C62.4631 54.5085 63.375 54.3068 64.3977 54.3068C65.4091 54.3068 66.3125 54.5085 67.108 54.9119C67.9034 55.3153 68.5284 55.8665 68.983 56.5653C69.4432 57.2642 69.6761 58.0568 69.6818 58.9432C69.6761 59.8693 69.4233 60.696 68.9233 61.4233C68.429 62.1449 67.7727 62.6136 66.9545 62.8295V62.9318C67.5852 63.0455 68.1534 63.3153 68.6591 63.7415C69.1648 64.1619 69.5682 64.6875 69.8693 65.3182C70.1705 65.9432 70.3239 66.625 70.3295 67.3636C70.3239 68.3068 70.0682 69.1477 69.5625 69.8864C69.0625 70.6193 68.3665 71.196 67.4744 71.6165C66.5881 72.0312 65.5625 72.2386 64.3977 72.2386ZM64.3977 70.3636C65.1875 70.3636 65.8693 70.2358 66.4432 69.9801C67.017 69.7244 67.4602 69.3636 67.7727 68.8977C68.0852 68.4318 68.2443 67.8864 68.25 67.2614C68.2443 66.6023 68.0739 66.0199 67.7386 65.5142C67.4034 65.0085 66.946 64.6108 66.3665 64.321C65.7926 64.0312 65.1364 63.8864 64.3977 63.8864C63.6534 63.8864 62.9886 64.0312 62.4034 64.321C61.8239 64.6108 61.3665 65.0085 61.0312 65.5142C60.7017 66.0199 60.5398 66.6023 60.5455 67.2614C60.5398 67.8864 60.6903 68.4318 60.9972 68.8977C61.3097 69.3636 61.7557 69.7244 62.3352 69.9801C62.9148 70.2358 63.6023 70.3636 64.3977 70.3636ZM64.3977 62.0795C65.0227 62.0795 65.5767 61.9545 66.0597 61.7045C66.5483 61.4545 66.9318 61.1051 67.2102 60.6562C67.4886 60.2074 67.6307 59.6818 67.6364 59.0795C67.6307 58.4886 67.4915 57.9744 67.2188 57.5369C66.946 57.0937 66.5682 56.7528 66.0852 56.5142C65.6023 56.2699 65.0398 56.1477 64.3977 56.1477C63.7443 56.1477 63.1733 56.2699 62.6847 56.5142C62.196 56.7528 61.8182 57.0937 61.5511 57.5369C61.2841 57.9744 61.1534 58.4886 61.1591 59.0795C61.1534 59.6818 61.2869 60.2074 61.5597 60.6562C61.8381 61.1051 62.2216 61.4545 62.7102 61.7045C63.1989 61.9545 63.7614 62.0795 64.3977 62.0795Z" fill="black" data-darkreader-inline-fill="" style="--darkreader-inline-fill: var(--darkreader-text-000000, #e8e6e3);"></path>
<path d="M104.943 15.5455V33H102.83V17.7614H102.727L98.4659 20.5909V18.4432L102.83 15.5455H104.943Z" fill="black" data-darkreader-inline-fill="" style="--darkreader-inline-fill: var(--darkreader-text-000000, #e8e6e3);"></path>
</svg><style>@media (prefers-color-scheme: light) { :root { filter: none; } }
@media (prefers-color-scheme: dark) { :root { filter: none; } }
</style></svg>